<svg xmlns="http://www.w3.org/2000/svg" width="32" height="32" viewBox="0 0 24 24"><path fill="currentColor" d="M12 14q-.425 0-.712-.288T11 13q0-.425.288-.712T12 12q.425 0 .713.288T13 13q0 .425-.288.713T12 14m-4 0q-.425 0-.712-.288T7 13q0-.425.288-.712T8 12q.425 0 .713.288T9 13q0 .425-.288.713T8 14m8 0q-.425 0-.712-.288T15 13q0-.425.288-.712T16 12q.425 0 .713.288T17 13q0 .425-.288.713T16 14m-4 4q-.425 0-.712-.288T11 17q0-.425.288-.712T12 16q.425 0 .713.288T13 17q0 .425-.288.713T12 18m-4 0q-.425 0-.712-.288T7 17q0-.425.288-.712T8 16q.425 0 .713.288T9 17q0 .425-.288.713T8 18m8 0q-.425 0-.712-.288T15 17q0-.425.288-.712T16 16q.425 0 .713.288T17 17q0 .425-.288.713T16 18M5 22q-.825 0-1.412-.587T3 20V6q0-.825.588-1.412T5 4h1V2h2v2h8V2h2v2h1q.825 0 1.413.588T21 6v14q0 .825-.587 1.413T19 22zm0-2h14V10H5z"/></svg>